<svg width="685" height="357" viewBox="0 0 685 357" fill="none" xmlns="http://www.w3.org/2000/svg">
<g clip-path="url(#clip0)">
<path d="M330.572 275.792C344.476 261.888 352.131 243.403 352.132 223.739C352.132 186.719 324.661 156 289.034 150.881L289.034 172.216L289.035 172.217L289.035 193.249L289.035 220.123L289.035 223.739C289.035 229.546 284.327 234.255 278.519 234.255C272.712 234.255 268.003 229.547 268.003 223.739L268.002 193.248L268.002 172.216L268.002 172.209L268.002 172.207L268.002 150.88L289.034 150.88L289.035 129.093L299.551 129.093C299.56 129.093 299.568 129.092 299.576 129.092L327.594 129.092C333.402 129.093 338.111 124.383 338.11 118.576C338.11 112.769 333.402 108.061 327.594 108.06L310.067 108.06L310.067 41.4584C310.067 33.0309 306.786 25.108 300.827 19.1492C294.868 13.1905 286.945 9.9102 278.519 9.9107C270.092 9.9102 262.169 13.1915 256.212 19.1497C250.252 25.1085 246.972 33.0309 246.97 41.4589L246.972 108.06L229.445 108.06C226.54 108.06 223.911 109.238 222.008 111.14C220.105 113.043 218.928 115.672 218.929 118.576C218.929 124.383 223.636 129.091 229.445 129.092L257.474 129.091C257.478 129.092 257.483 129.092 257.488 129.092L268.004 129.093L268.003 150.869C252.331 153.097 237.86 160.293 226.467 171.686C212.564 185.589 204.906 204.076 204.907 223.738C204.907 264.329 237.93 297.351 278.521 297.351C298.182 297.353 316.668 289.696 330.572 275.792Z" fill="#7041FF"/>
<path d="M462.792 115.4C461.326 123 458.992 129.867 455.792 136C452.592 142.133 448.526 147.4 443.592 151.8C438.792 156.2 433.192 159.6 426.792 162C420.392 164.4 413.326 165.6 405.592 165.6C396.926 165.6 388.792 164.133 381.192 161.2C373.726 158.267 367.259 153.867 361.792 148C356.326 142.133 351.992 134.933 348.792 126.4C345.726 117.733 344.192 107.667 344.192 96.2C344.192 85 345.592 74.9333 348.392 66C351.326 56.9333 355.459 49.3333 360.792 43.2C366.126 36.9333 372.592 32.1333 380.192 28.8C387.926 25.4667 396.526 23.8 405.992 23.8C414.259 23.8 421.726 25.0667 428.392 27.6C435.192 30 440.992 33.4 445.792 37.8C450.726 42.0667 454.592 47.1333 457.392 53C460.326 58.8667 462.126 65.1333 462.792 71.8H434.992C433.126 64.2 429.526 58.3333 424.192 54.2C418.859 49.9333 412.859 47.8 406.192 47.8C394.592 47.8 386.059 52 380.592 60.4C375.126 68.6667 372.392 80.0667 372.392 94.6C372.392 109.4 375.059 120.933 380.392 129.2C385.859 137.333 393.992 141.4 404.792 141.4C413.059 141.4 419.659 139.2 424.592 134.8C429.659 130.267 433.126 123.8 434.992 115.4H462.792ZM468.449 161V28.2H566.049V51.4H495.449V79.8H560.449V103.2H495.449V137.4H569.249V161H468.449ZM601.894 51.2V86.6H636.694C644.161 86.6 649.427 84.9333 652.494 81.6C655.561 78.2667 657.094 74.0667 657.094 69C657.094 63.8 655.561 59.5333 652.494 56.2C649.561 52.8667 644.627 51.2 637.694 51.2H601.894ZM652.294 161V126.8C652.294 120.4 650.827 115.867 647.894 113.2C644.961 110.4 639.494 109 631.494 109H601.894V161H574.894V28.2H642.294C648.427 28.2 653.961 29.2 658.894 31.2C663.961 33.0667 668.294 35.7333 671.894 39.2C675.494 42.5333 678.227 46.6 680.094 51.4C682.094 56.0667 683.094 61.1333 683.094 66.6C683.094 73.8 681.361 80.2 677.894 85.8C674.561 91.2667 669.694 95.1333 663.294 97.4C669.161 99.2667 673.294 102.133 675.694 106C678.227 109.867 679.494 115.667 679.494 123.4V161H652.294Z" fill="#7041FF"/>
<path d="M80.9924 59.4C80.3257 52.6 77.8591 47.5333 73.5924 44.2C69.3257 40.8667 62.9924 39.2 54.5924 39.2C46.7257 39.2 40.7924 40.5333 36.7924 43.2C32.7924 45.8667 30.7924 49.7333 30.7924 54.8C30.7924 59.0667 32.3257 62.4667 35.3924 65C38.5924 67.5333 43.9257 69.7333 51.3924 71.6C58.9924 73.4667 66.1924 75.3333 72.9924 77.2C79.9257 78.9333 85.8591 80.9333 90.7924 83.2C93.7257 84.5333 96.4591 86.0667 98.9924 87.8C101.526 89.5333 103.726 91.6667 105.592 94.2C107.459 96.7333 108.926 99.7333 109.992 103.2C111.059 106.667 111.592 110.733 111.592 115.4C111.592 122.733 110.259 129.067 107.592 134.4C105.059 139.6 101.392 143.933 96.5924 147.4C91.9257 150.867 86.3257 153.4 79.7924 155C73.3924 156.733 66.3257 157.6 58.5924 157.6C50.3257 157.6 42.7924 156.667 35.9924 154.8C29.1924 153.067 23.3257 150.333 18.3924 146.6C13.459 142.867 9.59238 138.267 6.79238 132.8C3.99238 127.2 2.52572 120.667 2.39238 113.2H29.1924C29.4591 120 32.1924 125.4 37.3924 129.4C42.7257 133.267 49.8591 135.2 58.7924 135.2C67.0591 135.2 73.3924 133.6 77.7924 130.4C82.3257 127.067 84.5924 122.4 84.5924 116.4C84.5924 114.4 84.2591 112.6 83.5924 111C83.0591 109.4 81.9924 107.933 80.3924 106.6C78.9257 105.133 76.8591 103.867 74.1924 102.8C71.5257 101.6 68.1257 100.533 63.9924 99.6C55.7257 97.7333 48.7257 96.1333 42.9924 94.8C37.3924 93.3333 32.2591 91.5333 27.5924 89.4C20.3924 86.2 14.859 82.0667 10.9924 77C7.25905 71.8 5.39238 65 5.39238 56.6C5.39238 50.6 6.39238 45.1333 8.39238 40.2C10.3924 35.1333 13.3924 30.8 17.3924 27.2C21.5257 23.6 26.5924 20.8 32.5924 18.8C38.7257 16.8 45.8591 15.8 53.9924 15.8C62.3924 15.8 69.8591 16.8667 76.3924 19C82.9257 21.1333 88.3924 24.1333 92.7924 28C97.3257 31.8667 100.792 36.4667 103.192 41.8C105.726 47.1333 107.126 53 107.392 59.4H80.9924ZM118.488 153V20.2H146.288V128.8H212.088V153H118.488Z" fill="#7041FF"/>
<path d="M419.3 230.4L389.38 281.88H419.3V230.4ZM418.64 336V304.1H361.88V279.24L415.12 189.92H447.24V281.88H463.74V304.1H447.24V336H418.64ZM519.969 317.96C523.489 317.96 526.496 317.007 528.989 315.1C531.629 313.047 533.756 309.893 535.369 305.64C537.129 301.24 538.449 295.593 539.329 288.7C540.209 281.66 540.649 273.153 540.649 263.18C540.649 253.06 540.209 244.48 539.329 237.44C538.449 230.4 537.129 224.753 535.369 220.5C533.756 216.1 531.629 212.947 528.989 211.04C526.496 208.987 523.489 207.96 519.969 207.96C516.449 207.96 513.369 208.913 510.729 210.82C508.236 212.727 506.109 215.88 504.349 220.28C502.589 224.533 501.269 230.18 500.389 237.22C499.509 244.113 499.069 252.62 499.069 262.74C499.069 272.86 499.509 281.44 500.389 288.48C501.269 295.52 502.589 301.24 504.349 305.64C506.109 310.04 508.236 313.193 510.729 315.1C513.369 317.007 516.449 317.96 519.969 317.96ZM519.089 341.06C511.169 341.06 504.129 339.52 497.969 336.44C491.809 333.36 486.602 328.667 482.349 322.36C478.096 315.907 474.869 307.767 472.669 297.94C470.469 287.967 469.369 276.087 469.369 262.3C469.369 248.66 470.469 237 472.669 227.32C474.869 217.493 478.096 209.5 482.349 203.34C486.602 197.033 491.809 192.413 497.969 189.48C504.129 186.547 511.169 185.08 519.089 185.08C527.009 185.08 534.049 186.547 540.209 189.48C546.516 192.413 551.796 196.96 556.049 203.12C560.449 209.28 563.822 217.2 566.169 226.88C568.516 236.56 569.689 248.22 569.689 261.86C569.689 288.993 565.142 309.013 556.049 321.92C547.102 334.68 534.782 341.06 519.089 341.06ZM631.78 230.4L601.86 281.88H631.78V230.4ZM631.12 336V304.1H574.36V279.24L627.6 189.92H659.72V281.88H676.22V304.1H659.72V336H631.12Z" fill="#7041FF"/>
</g>
<defs>
<clipPath id="clip0">
<rect width="685" height="357" fill="white"/>
</clipPath>
</defs>
</svg>
