<svg width="687" height="337" viewBox="0 0 687 337" fill="none" xmlns="http://www.w3.org/2000/svg">
<g clip-path="url(#clip0)">
<path d="M329.38 315.793C343.284 301.888 350.939 283.403 350.94 263.74C350.94 226.719 323.469 196 287.842 190.881L287.842 212.217L287.843 212.217L287.843 233.249L287.843 260.123V263.739C287.843 269.547 283.135 274.255 277.327 274.256C271.52 274.256 266.811 269.547 266.811 263.739L266.81 233.249L266.81 212.217L266.81 212.21V212.208V190.88H287.842L287.843 169.093L298.359 169.094C298.368 169.094 298.376 169.092 298.384 169.093L326.402 169.093C332.21 169.093 336.919 164.384 336.918 158.576C336.918 152.769 332.21 148.061 326.402 148.06L308.875 148.06L308.875 81.4589C308.875 73.0314 305.594 65.1085 299.635 59.1497C293.676 53.191 285.753 49.9107 277.327 49.9112C268.9 49.9107 260.977 53.192 255.02 59.1502C249.06 65.109 245.779 73.0314 245.778 81.4594L245.779 148.06L228.253 148.061C225.348 148.061 222.719 149.238 220.816 151.14C218.913 153.043 217.736 155.673 217.737 158.576C217.737 164.383 222.444 169.092 228.253 169.092L256.282 169.092C256.286 169.092 256.291 169.093 256.296 169.093L266.812 169.093L266.811 190.87C251.139 193.097 236.668 200.293 225.275 211.686C211.371 225.589 203.714 244.076 203.715 263.738C203.715 304.33 236.738 337.352 277.329 337.352C296.99 337.354 315.476 329.696 329.38 315.793Z" fill="#7041FF"/>
<path d="M461.6 155.4C460.133 163 457.8 169.867 454.6 176C451.4 182.133 447.333 187.4 442.4 191.8C437.6 196.2 432 199.6 425.6 202C419.2 204.4 412.133 205.6 404.4 205.6C395.733 205.6 387.6 204.133 380 201.2C372.533 198.267 366.067 193.867 360.6 188C355.133 182.133 350.8 174.933 347.6 166.4C344.533 157.733 343 147.667 343 136.2C343 125 344.4 114.933 347.2 106C350.133 96.9333 354.267 89.3333 359.6 83.2C364.933 76.9333 371.4 72.1333 379 68.8C386.733 65.4667 395.333 63.8 404.8 63.8C413.067 63.8 420.533 65.0667 427.2 67.6C434 70 439.8 73.4 444.6 77.8C449.533 82.0667 453.4 87.1333 456.2 93C459.133 98.8667 460.933 105.133 461.6 111.8H433.8C431.933 104.2 428.333 98.3333 423 94.2C417.667 89.9333 411.667 87.8 405 87.8C393.4 87.8 384.867 92 379.4 100.4C373.933 108.667 371.2 120.067 371.2 134.6C371.2 149.4 373.867 160.933 379.2 169.2C384.667 177.333 392.8 181.4 403.6 181.4C411.867 181.4 418.467 179.2 423.4 174.8C428.467 170.267 431.933 163.8 433.8 155.4H461.6ZM467.256 201V68.2H564.856V91.4H494.256V119.8H559.256V143.2H494.256V177.4H568.056V201H467.256ZM600.702 91.2V126.6H635.502C642.968 126.6 648.235 124.933 651.302 121.6C654.368 118.267 655.902 114.067 655.902 109C655.902 103.8 654.368 99.5333 651.302 96.2C648.368 92.8667 643.435 91.2 636.502 91.2H600.702ZM651.102 201V166.8C651.102 160.4 649.635 155.867 646.702 153.2C643.768 150.4 638.302 149 630.302 149H600.702V201H573.702V68.2H641.102C647.235 68.2 652.768 69.2 657.702 71.2C662.768 73.0667 667.102 75.7333 670.702 79.2C674.302 82.5333 677.035 86.6 678.902 91.4C680.902 96.0667 681.902 101.133 681.902 106.6C681.902 113.8 680.168 120.2 676.702 125.8C673.368 131.267 668.502 135.133 662.102 137.4C667.968 139.267 672.102 142.133 674.502 146C677.035 149.867 678.302 155.667 678.302 163.4V201H651.102Z" fill="#7041FF"/>
<path d="M79.8 99.4C79.1333 92.6 76.6667 87.5333 72.4 84.2C68.1333 80.8667 61.8 79.2 53.4 79.2C45.5333 79.2 39.6 80.5333 35.6 83.2C31.6 85.8667 29.6 89.7333 29.6 94.8C29.6 99.0667 31.1333 102.467 34.2 105C37.4 107.533 42.7333 109.733 50.2 111.6C57.8 113.467 65 115.333 71.8 117.2C78.7333 118.933 84.6667 120.933 89.6 123.2C92.5333 124.533 95.2667 126.067 97.8 127.8C100.333 129.533 102.533 131.667 104.4 134.2C106.267 136.733 107.733 139.733 108.8 143.2C109.867 146.667 110.4 150.733 110.4 155.4C110.4 162.733 109.067 169.067 106.4 174.4C103.867 179.6 100.2 183.933 95.4 187.4C90.7333 190.867 85.1333 193.4 78.6 195C72.2 196.733 65.1333 197.6 57.4 197.6C49.1333 197.6 41.6 196.667 34.8 194.8C28 193.067 22.1333 190.333 17.2 186.6C12.2667 182.867 8.4 178.267 5.6 172.8C2.8 167.2 1.33333 160.667 1.2 153.2H28C28.2667 160 31 165.4 36.2 169.4C41.5333 173.267 48.6667 175.2 57.6 175.2C65.8667 175.2 72.2 173.6 76.6 170.4C81.1333 167.067 83.4 162.4 83.4 156.4C83.4 154.4 83.0667 152.6 82.4 151C81.8667 149.4 80.8 147.933 79.2 146.6C77.7333 145.133 75.6667 143.867 73 142.8C70.3333 141.6 66.9333 140.533 62.8 139.6C54.5333 137.733 47.5333 136.133 41.8 134.8C36.2 133.333 31.0667 131.533 26.4 129.4C19.2 126.2 13.6667 122.067 9.8 117C6.06667 111.8 4.2 105 4.2 96.6C4.2 90.6 5.2 85.1333 7.2 80.2C9.2 75.1333 12.2 70.8 16.2 67.2C20.3333 63.6 25.4 60.8 31.4 58.8C37.5333 56.8 44.6667 55.8 52.8 55.8C61.2 55.8 68.6667 56.8667 75.2 59C81.7333 61.1333 87.2 64.1333 91.6 68C96.1333 71.8667 99.6 76.4667 102 81.8C104.533 87.1333 105.933 93 106.2 99.4H79.8ZM117.295 193V60.2H145.095V168.8H210.895V193H117.295Z" fill="#7041FF"/>
</g>
<defs>
<clipPath id="clip0">
<rect width="687" height="337" fill="white"/>
</clipPath>
</defs>
</svg>
