<svg width="900" height="900" viewBox="0 0 900 900" fill="none" xmlns="http://www.w3.org/2000/svg">
<path d="M428.38 581.793C442.284 567.888 449.939 549.403 449.94 529.74C449.94 492.719 422.469 462 386.842 456.881L386.842 478.217L386.843 478.217L386.843 499.249L386.843 526.123V529.739C386.843 535.547 382.135 540.255 376.327 540.256C370.52 540.256 365.811 535.547 365.811 529.739L365.81 499.249L365.81 478.217L365.81 478.21V478.208V456.88H386.842L386.843 435.093L397.359 435.094C397.368 435.094 397.376 435.092 397.384 435.093H425.402C431.21 435.093 435.919 430.384 435.918 424.576C435.918 418.769 431.21 414.061 425.402 414.06L407.875 414.06L407.875 347.459C407.875 339.031 404.594 331.109 398.635 325.15C392.676 319.191 384.753 315.911 376.327 315.911C367.9 315.911 359.977 319.192 354.02 325.15C348.06 331.109 344.78 339.031 344.778 347.459L344.78 414.06L327.253 414.061C324.348 414.061 321.719 415.238 319.816 417.14C317.913 419.043 316.736 421.673 316.737 424.576C316.737 430.383 321.444 435.092 327.253 435.092L355.282 435.092C355.286 435.092 355.291 435.093 355.296 435.093L365.812 435.093L365.811 456.87C350.139 459.097 335.668 466.293 324.275 477.686C310.371 491.589 302.714 510.076 302.715 529.738C302.715 570.33 335.738 603.352 376.329 603.352C395.99 603.354 414.476 595.696 428.38 581.793Z" fill="#7041FF"/>
<path d="M560.6 421.4C559.133 429 556.8 435.867 553.6 442C550.4 448.133 546.333 453.4 541.4 457.8C536.6 462.2 531 465.6 524.6 468C518.2 470.4 511.133 471.6 503.4 471.6C494.733 471.6 486.6 470.133 479 467.2C471.533 464.267 465.067 459.867 459.6 454C454.133 448.133 449.8 440.933 446.6 432.4C443.533 423.733 442 413.667 442 402.2C442 391 443.4 380.933 446.2 372C449.133 362.933 453.267 355.333 458.6 349.2C463.933 342.933 470.4 338.133 478 334.8C485.733 331.467 494.333 329.8 503.8 329.8C512.067 329.8 519.533 331.067 526.2 333.6C533 336 538.8 339.4 543.6 343.8C548.533 348.067 552.4 353.133 555.2 359C558.133 364.867 559.933 371.133 560.6 377.8H532.8C530.933 370.2 527.333 364.333 522 360.2C516.667 355.933 510.667 353.8 504 353.8C492.4 353.8 483.867 358 478.4 366.4C472.933 374.667 470.2 386.067 470.2 400.6C470.2 415.4 472.867 426.933 478.2 435.2C483.667 443.333 491.8 447.4 502.6 447.4C510.867 447.4 517.467 445.2 522.4 440.8C527.467 436.267 530.933 429.8 532.8 421.4H560.6ZM566.256 467V334.2H663.856V357.4H593.256V385.8H658.256V409.2H593.256V443.4H667.056V467H566.256ZM699.702 357.2V392.6H734.502C741.968 392.6 747.235 390.933 750.302 387.6C753.368 384.267 754.902 380.067 754.902 375C754.902 369.8 753.368 365.533 750.302 362.2C747.368 358.867 742.435 357.2 735.502 357.2H699.702ZM750.102 467V432.8C750.102 426.4 748.635 421.867 745.702 419.2C742.768 416.4 737.302 415 729.302 415H699.702V467H672.702V334.2H740.102C746.235 334.2 751.768 335.2 756.702 337.2C761.768 339.067 766.102 341.733 769.702 345.2C773.302 348.533 776.035 352.6 777.902 357.4C779.902 362.067 780.902 367.133 780.902 372.6C780.902 379.8 779.168 386.2 775.702 391.8C772.368 397.267 767.502 401.133 761.102 403.4C766.968 405.267 771.102 408.133 773.502 412C776.035 415.867 777.302 421.667 777.302 429.4V467H750.102Z" fill="#7041FF"/>
<path d="M178.8 365.4C178.133 358.6 175.667 353.533 171.4 350.2C167.133 346.867 160.8 345.2 152.4 345.2C144.533 345.2 138.6 346.533 134.6 349.2C130.6 351.867 128.6 355.733 128.6 360.8C128.6 365.067 130.133 368.467 133.2 371C136.4 373.533 141.733 375.733 149.2 377.6C156.8 379.467 164 381.333 170.8 383.2C177.733 384.933 183.667 386.933 188.6 389.2C191.533 390.533 194.267 392.067 196.8 393.8C199.333 395.533 201.533 397.667 203.4 400.2C205.267 402.733 206.733 405.733 207.8 409.2C208.867 412.667 209.4 416.733 209.4 421.4C209.4 428.733 208.067 435.067 205.4 440.4C202.867 445.6 199.2 449.933 194.4 453.4C189.733 456.867 184.133 459.4 177.6 461C171.2 462.733 164.133 463.6 156.4 463.6C148.133 463.6 140.6 462.667 133.8 460.8C127 459.067 121.133 456.333 116.2 452.6C111.267 448.867 107.4 444.267 104.6 438.8C101.8 433.2 100.333 426.667 100.2 419.2H127C127.267 426 130 431.4 135.2 435.4C140.533 439.267 147.667 441.2 156.6 441.2C164.867 441.2 171.2 439.6 175.6 436.4C180.133 433.067 182.4 428.4 182.4 422.4C182.4 420.4 182.067 418.6 181.4 417C180.867 415.4 179.8 413.933 178.2 412.6C176.733 411.133 174.667 409.867 172 408.8C169.333 407.6 165.933 406.533 161.8 405.6C153.533 403.733 146.533 402.133 140.8 400.8C135.2 399.333 130.067 397.533 125.4 395.4C118.2 392.2 112.667 388.067 108.8 383C105.067 377.8 103.2 371 103.2 362.6C103.2 356.6 104.2 351.133 106.2 346.2C108.2 341.133 111.2 336.8 115.2 333.2C119.333 329.6 124.4 326.8 130.4 324.8C136.533 322.8 143.667 321.8 151.8 321.8C160.2 321.8 167.667 322.867 174.2 325C180.733 327.133 186.2 330.133 190.6 334C195.133 337.867 198.6 342.467 201 347.8C203.533 353.133 204.933 359 205.2 365.4H178.8ZM216.295 459V326.2H244.095V434.8H309.895V459H216.295Z" fill="#7041FF"/>
</svg>
