<svg width="30" height="30" viewBox="0 0 30 30" fill="none" xmlns="http://www.w3.org/2000/svg">
<path d="M25.9922 22.6816L18.3047 14.9648L26.0098 7.34766C26.3262 7.03125 26.3262 6.51563 26.0098 6.19922L23.8184 3.99609C23.666 3.84375 23.4609 3.76172 23.2441 3.76172C23.0273 3.76172 22.8223 3.84961 22.6699 3.99609L15 11.5898L7.31836 4.00195C7.16602 3.84961 6.96094 3.76758 6.74414 3.76758C6.52734 3.76758 6.32227 3.85547 6.16992 4.00195L3.98438 6.20508C3.66797 6.52148 3.66797 7.03711 3.98438 7.35352L11.6895 14.9707L4.00781 22.6816C3.85547 22.834 3.76758 23.0391 3.76758 23.2559C3.76758 23.4727 3.84961 23.6777 4.00781 23.8301L6.19922 26.0332C6.35742 26.1914 6.5625 26.2734 6.77344 26.2734C6.97852 26.2734 7.18945 26.1973 7.34766 26.0332L15 18.3457L22.6582 26.0273C22.8164 26.1855 23.0215 26.2676 23.2324 26.2676C23.4375 26.2676 23.6484 26.1914 23.8066 26.0273L25.998 23.8242C26.1504 23.6719 26.2383 23.4668 26.2383 23.25C26.2324 23.0391 26.1445 22.834 25.9922 22.6816Z" fill="white"/>
</svg>
