<svg width="50" height="50" viewBox="0 0 50 50" fill="none" xmlns="http://www.w3.org/2000/svg">
<path d="M35.9375 0C35.7438 0 17.1875 0 17.1875 0C13.8812 0 10.9375 3.03284 10.9375 6.25004L9.13126 6.29221C5.82656 6.29221 3.125 9.2828 3.125 12.5V43.75C3.125 46.9672 6.06876 50 9.37504 50H32.8125C36.1187 50 39.0625 46.9672 39.0625 43.75H40.625C43.9313 43.75 46.875 40.7173 46.875 37.5001V12.5375L35.9375 0ZM32.8125 46.8751H9.37504C7.73441 46.8751 6.25005 45.3423 6.25005 43.75V12.5C6.25005 10.9078 7.586 9.42656 9.22663 9.42656L10.9375 9.37502V37.5001C10.9375 40.7173 13.8812 43.75 17.1875 43.75H35.9375C35.9375 45.3423 34.4531 46.8751 32.8125 46.8751ZM43.7501 37.5001C43.7501 39.0922 42.2656 40.625 40.625 40.625H17.1875C15.5469 40.625 14.0625 39.0922 14.0625 37.5001V6.25004C14.0625 4.65788 15.5469 3.12505 17.1875 3.12505H32.8125C32.7875 6.72349 32.8125 9.41412 32.8125 9.41412C32.8125 12.661 35.7344 15.6251 39.0625 15.6251C39.0625 15.6251 40.7219 15.6251 43.7501 15.6251V37.5001ZM39.0625 12.5C37.3985 12.5 35.9375 9.4766 35.9375 7.8547C35.9375 7.8547 35.9375 6.21093 35.9375 3.17345V3.1703L43.7501 12.5H39.0625ZM35.9375 21.9032H21.875C21.0125 21.9032 20.3125 22.6016 20.3125 23.4641C20.3125 24.3266 21.0125 25.025 21.875 25.025H35.9375C36.8 25.025 37.5 24.3265 37.5 23.4641C37.5 22.6016 36.8 21.9032 35.9375 21.9032ZM35.9375 29.7078H21.875C21.0125 29.7078 20.3125 30.4063 20.3125 31.2687C20.3125 32.1313 21.0125 32.8297 21.875 32.8297H35.9375C36.8 32.8297 37.5 32.1313 37.5 31.2687C37.5 30.4063 36.8 29.7078 35.9375 29.7078Z" fill="white"/>
</svg>
