<svg width="50" height="50" viewBox="0 0 50 50" fill="none" xmlns="http://www.w3.org/2000/svg">
<path d="M18.5185 12.5648C12.627 18.6745 13.9126 28.8137 20.6613 33.3052C20.8837 33.4533 21.1795 33.4239 21.3705 33.2369C22.7913 31.8455 23.9932 30.4977 25.0456 28.7836C25.2066 28.5214 25.1065 28.1811 24.8364 28.0344C23.807 27.4754 22.7827 26.4273 22.2061 25.3202L22.2054 25.3206C21.5146 23.942 21.2795 22.3966 21.6452 20.8006C21.6455 20.8007 21.6459 20.8008 21.6463 20.8008C22.0671 18.7575 24.2557 16.8568 25.9273 15.0989C25.9238 15.0977 25.9203 15.0964 25.9168 15.0953L32.1797 8.68837C34.6756 6.13515 38.781 6.1141 41.3027 8.64166C43.85 11.1432 43.8921 15.2788 41.3963 17.8319L37.6028 21.7419C37.4272 21.9228 37.3703 22.1869 37.4525 22.4255C38.3259 24.9642 38.5407 28.5439 37.9554 31.2484C37.939 31.3241 38.0322 31.3737 38.0862 31.3183L46.16 23.0589C51.3178 17.7826 51.274 9.1922 46.0628 3.96904C40.7447 -1.36136 32.0869 -1.317 26.8234 4.06745L18.5509 12.5301C18.5399 12.5417 18.5296 12.5534 18.5185 12.5648V12.5648Z" fill="white"/>
<path d="M33.6127 34.4687C33.6126 34.469 33.6124 34.4693 33.6123 34.4696C33.6175 34.4675 33.6223 34.4654 33.6275 34.4632C35.2752 31.4432 35.5996 27.9797 34.8273 24.6033L34.8238 24.6069L34.82 24.6053C34.0868 21.5981 32.0748 18.6119 29.3423 16.7733C29.1073 16.6152 28.7318 16.6335 28.5117 16.8119C27.1275 17.9337 25.7727 19.3721 24.8788 21.2077C24.7384 21.4959 24.8435 21.8421 25.1202 22.0031C26.1577 22.6068 27.0946 23.4907 27.722 24.6641L27.7229 24.6634C28.2118 25.4924 28.6936 27.0653 28.3815 28.7553C28.3813 28.7553 28.381 28.7553 28.3809 28.7553C28.0897 30.9959 25.8322 33.0512 24.0377 34.9031L24.0385 34.904C22.6725 36.3042 19.1999 39.8524 17.8094 41.2762C15.3137 43.8294 11.1876 43.8716 8.64032 41.3701C6.09307 38.8685 6.05096 34.7329 8.54672 32.1798L12.3515 28.2581C12.5239 28.0804 12.5825 27.822 12.5059 27.5863C11.661 24.9882 11.4296 21.4893 11.9628 18.7878C11.9777 18.7125 11.8853 18.6644 11.8316 18.7192L3.87927 26.8544C-1.33131 32.1848 -1.28715 40.8634 3.97755 46.1401C9.29541 51.3625 17.9094 51.2743 23.1198 45.9442C24.9299 43.9148 32.6783 36.7242 33.6127 34.4687V34.4687Z" fill="white"/>
</svg>
