<svg width="50" height="50" viewBox="0 0 50 50" fill="none" xmlns="http://www.w3.org/2000/svg">
<path d="M4.39453 8.78906C4.45099 8.78906 4.50706 8.78677 4.56352 8.78487L7.20062 15.5193C4.67224 16.7267 2.92969 19.4412 2.92969 22.4815V36.8164C2.92969 44.0857 8.84399 50 16.1133 50H33.8024C33.8039 50 33.8051 49.9996 33.8066 49.9996C42.7376 49.9901 50 42.7658 50 33.8867V32.4219C50 22.2446 41.1747 13.9179 30.6023 14.9261C25.1656 15.4446 20.4453 18.5986 17.5781 23.0907V22.168C17.5781 19.2665 15.8752 16.6874 13.3099 15.5125L15.9443 8.78487C16.0004 8.78677 16.0568 8.78906 16.1133 8.78906C18.5364 8.78906 20.5078 6.81763 20.5078 4.39453C20.5078 1.97144 18.5364 0 16.1133 0C13.6902 0 11.7188 1.97144 11.7188 4.39453C11.7188 5.71175 12.302 6.8943 13.2229 7.70035L10.4237 14.8479C10.3107 14.8449 10.1974 14.8449 10.0838 14.8476L7.28531 7.70035C8.2058 6.8943 8.78906 5.71175 8.78906 4.39453C8.78906 1.97144 6.81763 0 4.39453 0C1.97144 0 0 1.97144 0 4.39453C0 6.81763 1.97144 8.78906 4.39453 8.78906ZM16.1133 2.92969C16.9209 2.92969 17.5781 3.58696 17.5781 4.39453C17.5781 5.2021 16.9209 5.85938 16.1133 5.85938C15.3057 5.85938 14.6484 5.2021 14.6484 4.39453C14.6484 3.58696 15.3057 2.92969 16.1133 2.92969ZM30.8804 17.8425C39.7774 16.9941 47.0703 24.0097 47.0703 32.4219V33.8867C47.0703 41.156 41.1121 47.0703 33.7891 47.0703C28.0811 47.0703 23.4375 42.4706 23.4375 36.8164V34.3845C23.4375 30.2803 26.5892 26.7761 30.4634 26.5728C34.6909 26.3515 38.1836 29.702 38.1836 33.8863V35.3516C38.1836 36.9671 36.8694 38.2812 35.2539 38.2812C33.6384 38.2812 32.3242 36.9671 32.3242 35.3516V33.8867C32.3242 33.0776 31.6685 32.4219 30.8594 32.4219C30.0503 32.4219 29.3945 33.0776 29.3945 33.8867V35.3516C29.3945 38.5826 32.0229 41.2109 35.2539 41.2109C38.485 41.2109 41.1133 38.5826 41.1133 35.3516V33.8863C41.1133 28.0258 36.2202 23.3383 30.3101 23.6473C24.7437 23.9391 20.5078 28.8765 20.5078 34.3845V36.8164C20.5078 37.2322 20.5284 37.6431 20.5662 38.0489C18.8309 37.4611 17.5781 35.8181 17.5781 33.8867V33.1142C17.5781 25.2621 23.4211 18.5539 30.8804 17.8425ZM14.6484 33.8867C14.6484 37.6831 17.5518 40.8134 21.2547 41.1755C22.081 43.5089 23.5504 45.5441 25.4517 47.0703H16.1133C10.4591 47.0703 5.85938 42.4706 5.85938 36.8164V22.4815C5.85938 20.1706 7.42683 18.1728 9.50508 17.8349C12.2894 17.3817 14.6484 19.5152 14.6484 22.168V33.8867ZM4.39453 2.92969C5.2021 2.92969 5.85938 3.58696 5.85938 4.39453C5.85938 5.2021 5.2021 5.85938 4.39453 5.85938C3.58696 5.85938 2.92969 5.2021 2.92969 4.39453C2.92969 3.58696 3.58696 2.92969 4.39453 2.92969Z" fill="white"/>
<path d="M10.2539 20.7031C9.44481 20.7031 8.78906 21.3589 8.78906 22.168V25.0977C8.78906 25.9068 9.44481 26.5625 10.2539 26.5625C11.063 26.5625 11.7188 25.9068 11.7188 25.0977V22.168C11.7188 21.3589 11.063 20.7031 10.2539 20.7031Z" fill="white"/>
</svg>
